<svg width="80" height="80" viewBox="0 0 80 80" fill="none" xmlns="http://www.w3.org/2000/svg">
<g filter="url(#filter0_d)">
<g filter="url(#filter1_d)">
<rect x="8" y="4" width="64" height="64" rx="8" fill="white"/>
</g>
<path d="M41 53C49.2843 53 56 46.2843 56 38C56 29.7157 49.2843 23 41 23C32.7157 23 26 29.7157 26 38C26 46.2843 32.7157 53 41 53Z" fill="#FF7733"/>
<path d="M41 23C44.7519 27.1075 46.8841 32.4381 47 38C46.8841 43.5619 44.7519 48.8925 41 53C37.2481 48.8925 35.1159 43.5619 35 38C35.1159 32.4381 37.2481 27.1075 41 23Z" fill="#FF7733"/>
<path d="M39 50C47.2843 50 54 43.2843 54 35C54 26.7157 47.2843 20 39 20C30.7157 20 24 26.7157 24 35C24 43.2843 30.7157 50 39 50Z" stroke="#19191B" stroke-width="2" stroke-linecap="round" stroke-linejoin="round"/>
<path d="M24 35H54" stroke="#19191B" stroke-width="2" stroke-linecap="round" stroke-linejoin="round"/>
<path d="M39 20C42.7519 24.1075 44.8841 29.4381 45 35C44.8841 40.5619 42.7519 45.8925 39 50C35.2481 45.8925 33.1159 40.5619 33 35C33.1159 29.4381 35.2481 24.1075 39 20V20Z" stroke="#19191B" stroke-width="2" stroke-linecap="round" stroke-linejoin="round"/>
</g>
<defs>
<filter id="filter0_d" x="0" y="0" width="80" height="80" filterUnits="userSpaceOnUse" color-interpolation-filters="sRGB">
<feFlood flood-opacity="0" result="BackgroundImageFix"/>
<feColorMatrix in="SourceAlpha" type="matrix" values="0 0 0 0 0 0 0 0 0 0 0 0 0 0 0 0 0 0 127 0"/>
<feMorphology radius="1" operator="dilate" in="SourceAlpha" result="effect1_dropShadow"/>
<feOffset dy="4"/>
<feGaussianBlur stdDeviation="3.5"/>
<feColorMatrix type="matrix" values="0 0 0 0 0.352941 0 0 0 0 0.352941 0 0 0 0 0.352941 0 0 0 0.12 0"/>
<feBlend mode="normal" in2="BackgroundImageFix" result="effect1_dropShadow"/>
<feBlend mode="normal" in="SourceGraphic" in2="effect1_dropShadow" result="shape"/>
</filter>
<filter id="filter1_d" x="0" y="0" width="80" height="80" filterUnits="userSpaceOnUse" color-interpolation-filters="sRGB">
<feFlood flood-opacity="0" result="BackgroundImageFix"/>
<feColorMatrix in="SourceAlpha" type="matrix" values="0 0 0 0 0 0 0 0 0 0 0 0 0 0 0 0 0 0 127 0"/>
<feMorphology radius="1" operator="dilate" in="SourceAlpha" result="effect1_dropShadow"/>
<feOffset dy="4"/>
<feGaussianBlur stdDeviation="3.5"/>
<feColorMatrix type="matrix" values="0 0 0 0 0.352941 0 0 0 0 0.352941 0 0 0 0 0.352941 0 0 0 0.12 0"/>
<feBlend mode="normal" in2="BackgroundImageFix" result="effect1_dropShadow"/>
<feBlend mode="normal" in="SourceGraphic" in2="effect1_dropShadow" result="shape"/>
</filter>
</defs>
</svg>
