<svg width="22" height="22" viewBox="0 0 22 22" fill="none" xmlns="http://www.w3.org/2000/svg">
<path d="M16 1H6C3.23858 1 1 3.23858 1 6V16C1 18.7614 3.23858 21 6 21H16C18.7614 21 21 18.7614 21 16V6C21 3.23858 18.7614 1 16 1Z" stroke="#D14600" stroke-width="2" stroke-linecap="round" stroke-linejoin="round"/>
<path d="M15 10.3703C15.1234 11.2025 14.9812 12.0525 14.5937 12.7993C14.2062 13.5461 13.5931 14.1517 12.8416 14.53C12.0901 14.9082 11.2384 15.0399 10.4077 14.9062C9.57708 14.7726 8.80971 14.3804 8.21479 13.7855C7.61987 13.1905 7.22768 12.4232 7.09402 11.5925C6.96035 10.7619 7.09202 9.9102 7.47028 9.15868C7.84854 8.40716 8.45414 7.79404 9.20094 7.40654C9.94773 7.01904 10.7977 6.87689 11.63 7.0003C12.4789 7.12619 13.2648 7.52176 13.8716 8.12861C14.4785 8.73545 14.8741 9.52138 15 10.3703Z" stroke="#D14600" stroke-width="2" stroke-linecap="round" stroke-linejoin="round"/>
<path d="M16.5 5.5H16.51" stroke="#D14600" stroke-width="2" stroke-linecap="round" stroke-linejoin="round"/>
</svg>
