<svg width="165" height="38" viewBox="0 0 165 38" fill="none" xmlns="http://www.w3.org/2000/svg">
<path d="M41.2171 5.36216L36.7946 19H32.6643L30.0536 10.7004L27.326 19H23.1957L18.7731 5.36216H22.7476L25.4947 14.0709L28.3781 5.36216H31.9239L34.671 14.1488L37.5349 5.36216H41.2171ZM48.8338 5.36216C50.0677 5.36216 51.1392 5.56998 52.0484 5.98561C52.9576 6.38825 53.659 6.97273 54.1525 7.73905C54.6461 8.49237 54.8929 9.38208 54.8929 10.4082C54.8929 11.4342 54.6461 12.324 54.1525 13.0773C53.659 13.8306 52.9576 14.4151 52.0484 14.8307C51.1392 15.2334 50.0677 15.4347 48.8338 15.4347H46.4569V19H42.5993V5.36216H48.8338ZM48.6 12.3954C49.3923 12.3954 49.9897 12.2265 50.3924 11.8888C50.795 11.5382 50.9963 11.0446 50.9963 10.4082C50.9963 9.77173 50.795 9.27817 50.3924 8.92748C49.9897 8.5768 49.3923 8.40145 48.6 8.40145H46.4569V12.3954H48.6Z" fill="#222222"/>
<path d="M61.7037 19.0876C60.6913 19.0876 59.7763 18.8637 58.9586 18.4159C58.1506 17.9681 57.513 17.35 57.0457 16.5615C56.5882 15.7633 56.3595 14.8726 56.3595 13.8894C56.3595 12.9062 56.5882 12.0203 57.0457 11.2319C57.513 10.4336 58.1555 9.81061 58.9732 9.36282C59.7909 8.91504 60.7059 8.69114 61.7183 8.69114C62.4776 8.69114 63.1785 8.81769 63.821 9.07079C64.4635 9.32389 65.0086 9.6938 65.4564 10.1805L64.7701 10.8668C63.9719 10.0588 62.9643 9.65486 61.7475 9.65486C60.9396 9.65486 60.2046 9.83982 59.5427 10.2097C58.8807 10.5796 58.3599 11.0858 57.9803 11.7283C57.6103 12.3708 57.4254 13.0911 57.4254 13.8894C57.4254 14.6876 57.6103 15.408 57.9803 16.0504C58.3599 16.6929 58.8807 17.1991 59.5427 17.569C60.2046 17.9389 60.9396 18.1239 61.7475 18.1239C62.9741 18.1239 63.9816 17.715 64.7701 16.8973L65.4564 17.5836C65.0086 18.0704 64.4586 18.4451 63.8064 18.708C63.1639 18.9611 62.463 19.0876 61.7037 19.0876ZM75.3735 16.2695H69.6788L68.4522 19H67.3279L72.0005 8.77875H73.0664L77.739 19H76.6L75.3735 16.2695ZM74.9792 15.3934L72.5261 9.90309L70.073 15.3934H74.9792ZM87.8696 19L85.5334 15.7146C85.2705 15.7438 84.998 15.7584 84.7157 15.7584H81.9705V19H80.89V8.77875H84.7157C86.0201 8.77875 87.0422 9.09026 87.782 9.71327C88.5219 10.3363 88.8918 11.1929 88.8918 12.2832C88.8918 13.0814 88.6873 13.758 88.2785 14.3128C87.8794 14.858 87.305 15.2522 86.5555 15.4956L89.0524 19H87.8696ZM84.6865 14.8385C85.6989 14.8385 86.4727 14.6146 87.0081 14.1668C87.5435 13.719 87.8112 13.0911 87.8112 12.2832C87.8112 11.4557 87.5435 10.823 87.0081 10.3849C86.4727 9.93716 85.6989 9.71327 84.6865 9.71327H81.9705V14.8385H84.6865ZM100.13 18.0655V19H92.9022V8.77875H99.9111V9.71327H93.9828V13.3491H99.2686V14.269H93.9828V18.0655H100.13ZM104.13 8.77875H105.211V18.0655H110.935V19H104.13V8.77875ZM120.628 16.2695H114.933L113.706 19H112.582L117.255 8.77875H118.321L122.993 19H121.854L120.628 16.2695ZM120.233 15.3934L117.78 9.90309L115.327 15.3934H120.233ZM132.583 13.7288C133.255 13.8748 133.771 14.1668 134.131 14.6049C134.501 15.0332 134.686 15.5881 134.686 16.2695C134.686 17.1456 134.36 17.8221 133.708 18.2991C133.065 18.7664 132.111 19 130.846 19H126.144V8.77875H130.554C131.693 8.77875 132.574 9.00751 133.197 9.46504C133.83 9.92256 134.146 10.5699 134.146 11.4071C134.146 11.9717 134.005 12.4535 133.722 12.8527C133.45 13.242 133.07 13.5341 132.583 13.7288ZM127.225 9.66946V13.3783H130.481C131.308 13.3783 131.946 13.2226 132.394 12.9111C132.841 12.5898 133.065 12.1274 133.065 11.5239C133.065 10.9203 132.841 10.4628 132.394 10.1513C131.946 9.83008 131.308 9.66946 130.481 9.66946H127.225ZM130.831 18.1093C131.746 18.1093 132.437 17.9535 132.905 17.642C133.372 17.3305 133.606 16.8438 133.606 16.1819C133.606 14.9066 132.681 14.269 130.831 14.269H127.225V18.1093H130.831Z" fill="#444444"/>
<path d="M0 18.6493H5.64569L12.3179 29.4819L19.2467 7.09449L31.0513 35.2593L36.6905 20.051H135.066" stroke="#D14600" stroke-width="1.63818"/>
</svg>
